<svg width="50" height="50" viewBox="0 0 50 50" fill="none" xmlns="http://www.w3.org/2000/svg">
<path d="M22.4276 9.77504C15.4517 9.77504 9.776 15.45 9.776 22.425C9.776 29.4 15.4517 35.1 22.4276 35.1C29.4285 35.1 35.1042 29.4 35.1042 22.425C35.1042 15.45 29.4285 9.77504 22.4276 9.77504Z" fill="#FFF7F7"/>
<path d="M49.4562 46.8L39.555 36.9C42.8554 32.975 44.8556 27.95 44.8556 22.425C44.8556 10.075 34.8044 0 22.4278 0C10.0763 0 0 10.075 0 22.425C0 34.8 10.0763 44.85 22.4278 44.85C27.9535 44.85 33.0042 42.85 36.9046 39.55L46.8059 49.45C47.1809 49.825 47.656 50 48.131 50C48.6061 50 49.0811 49.825 49.4562 49.45C50.1813 48.725 50.1813 47.525 49.4562 46.8ZM22.4278 38.85C13.3767 38.85 6.02576 31.475 6.02576 22.425C6.02576 13.375 13.3767 6.02501 22.4278 6.02501C31.4789 6.02501 38.8549 13.375 38.8549 22.425C38.8549 31.475 31.4789 38.85 22.4278 38.85Z" fill="#FFF7F7"/>
</svg>
