<svg width="65" height="65" viewBox="0 0 65 65" fill="none" xmlns="http://www.w3.org/2000/svg">
<path d="M32.4997 37.4292C35.222 37.4292 37.4289 35.2224 37.4289 32.5001C37.4289 29.7778 35.222 27.5709 32.4997 27.5709C29.7774 27.5709 27.5706 29.7778 27.5706 32.5001C27.5706 35.2224 29.7774 37.4292 32.4997 37.4292Z" fill="black"/>
<path d="M55.0874 35.1541L53.7061 34.3687C52.7311 33.7999 52.6228 32.8791 52.6228 32.4999C52.6228 32.1208 52.7311 31.1999 53.7061 30.6312L55.0874 29.8458C56.5228 29.0062 57.552 27.6791 57.9582 26.0812C58.3915 24.4833 58.1749 22.8041 57.3624 21.3687L54.5728 16.5479C52.8666 13.5958 49.0478 12.5666 46.0957 14.2729L44.7145 15.0583C43.7395 15.627 42.8728 15.2479 42.5749 15.0583C42.2499 14.8958 41.4916 14.327 41.4916 13.2166V11.6187C41.4916 8.2062 38.702 5.41661 35.2895 5.41661H29.7103C26.2978 5.41661 23.5082 8.2062 23.5082 11.6187V13.2166C23.5082 14.327 22.7499 14.8958 22.452 15.0583C22.127 15.2479 21.2603 15.627 20.2853 15.0583L18.9041 14.2729C15.952 12.5666 12.1603 13.5958 10.454 16.5479L7.66445 21.3687C5.93112 24.3208 6.96036 28.1395 9.93952 29.8458L11.2937 30.6312C12.2687 31.1999 12.377 32.1208 12.377 32.4999C12.377 32.8791 12.2687 33.7999 11.2937 34.3687L9.93952 35.1541C6.96036 36.8604 5.93112 40.6791 7.66445 43.6312L10.454 48.452C11.2665 49.8874 12.5937 50.9166 14.2187 51.3499C15.8166 51.7833 17.4687 51.5395 18.9041 50.727L20.2853 49.9416C21.2603 49.3729 22.127 49.752 22.452 49.9416C22.7499 50.1041 23.5082 50.6729 23.5082 51.7833V53.3812C23.5082 56.7937 26.2978 59.5833 29.7103 59.5833H35.2895C38.702 59.5833 41.4916 56.7937 41.4916 53.3812V51.7833C41.4916 50.6729 42.2499 50.1041 42.5749 49.9416C42.8728 49.752 43.7395 49.3729 44.7145 49.9416L46.0957 50.727C47.5311 51.5395 49.1833 51.7833 50.8083 51.3499C52.4062 50.9166 53.7332 49.8874 54.5728 48.452L57.3624 43.6312C58.1749 42.1958 58.3915 40.5166 57.9582 38.9187C57.552 37.3208 56.5228 35.9937 55.0874 35.1541ZM23.5082 32.4999C23.5082 27.5437 27.5437 23.5083 32.4999 23.5083C37.4562 23.5083 41.4916 27.5437 41.4916 32.4999C41.4916 37.4562 37.4562 41.4916 32.4999 41.4916C27.5437 41.4916 23.5082 37.4562 23.5082 32.4999Z" fill="black"/>
</svg>
