<svg width="65" height="69" viewBox="0 0 65 69" fill="none" xmlns="http://www.w3.org/2000/svg">
<path d="M27.0833 0C12.1604 0 0 12.7546 0 28.4067C0 44.0588 12.1604 56.8134 27.0833 56.8134C42.0063 56.8134 54.1667 44.0588 54.1667 28.4067C54.1667 12.7546 42.0063 0 27.0833 0ZM27.0833 11.6751C32.0396 11.6751 36.075 15.9077 36.075 21.1061C36.075 26.3046 32.0396 30.5372 27.0833 30.5372C22.1271 30.5372 18.0917 26.3046 18.0917 21.1061C18.0917 15.9077 22.1271 11.6751 27.0833 11.6751ZM27.0833 52.5523C20.4479 52.5523 14.4625 49.598 10.2646 44.8825C9.34375 43.8599 8.50417 42.7236 7.74584 41.5021C12.8917 37.3831 19.8521 35.0254 27.0833 35.0254C34.3146 35.0254 41.275 37.3831 46.4208 41.5021C45.6625 42.7236 44.8229 43.8599 43.9021 44.8825C39.7042 49.598 33.7188 52.5523 27.0833 52.5523Z" fill="#827D7D"/>
</svg>
